<?xml version="1.0" encoding="utf-8"?>
<!-- Generator: Adobe Illustrator 22.0.1, SVG Export Plug-In . SVG Version: 6.00 Build 0)  -->
<svg version="1.1" id="Layer_1" xmlns="http://www.w3.org/2000/svg" xmlns:xlink="http://www.w3.org/1999/xlink" x="0px" y="0px"
	 viewBox="0 0 256 256" style="enable-background:new 0 0 256 256;" xml:space="preserve">
<style type="text/css">
	.st0{fill:#3A312A;}
	.st1{fill:#D6DF58;}
	.st2{fill:#87796F;}
	.st3{fill:#B9C239;}
	.st4{fill:#EF6D7A;}
	.st5{fill:#FCE8CB;}
	.st6{fill:#D5DE58;}
	.st7{fill:#D34E5C;}
	.st8{fill:#695B51;}
	.st9{fill:#8AC6DD;}
	.st10{fill:#D7E057;}
	.st11{fill:#B8C136;}
	.st12{fill:#F16C7A;}
	.st13{fill:#8AC2D9;}
	.st14{fill:#F7E3C7;}
	.st15{fill:#8AC3DA;}
	.st16{fill:#6DA3BC;}
	.st17{fill:#6A5C52;}
	.st18{fill:#D5DC57;}
	.st19{fill:#F6E2C6;}
	.st20{fill:#DBC7AA;}
	.st21{fill:#CE4E61;}
	.st22{fill:#FAE6CA;}
	.st23{fill:#8AC5DC;}
	.st24{fill:#DDC9AC;}
	.st25{fill:#DECAAD;}
	.st26{fill:#6CA6BE;}
	.st27{fill:#F8E4C8;}
	.st28{fill:#89C4DB;}
	.st29{fill:#ED6E7A;}
	.st30{fill:#D24E5C;}
	.st31{fill:#6DA4BD;}
	.st32{fill:#EB6E7A;}
	.st33{fill:#68A7BB;}
	.st34{fill:#B9BC37;}
	.st35{fill:#CC4E61;}
	.st36{fill:#6CA8BF;}
	.st37{fill-rule:evenodd;clip-rule:evenodd;fill:#D5DE58;}
	.st38{fill:#EA6D7A;}
	.st39{fill:#F4E0C4;}
	.st40{fill-rule:evenodd;clip-rule:evenodd;fill:#D6DF58;}
	.st41{fill-rule:evenodd;clip-rule:evenodd;fill:#F16C7A;}
	.st42{fill:#F3DEC3;}
	.st43{fill-rule:evenodd;clip-rule:evenodd;fill:#FAE6CA;}
	.st44{fill:#F59689;}
	.st45{fill-rule:evenodd;clip-rule:evenodd;fill:#F8E4C8;}
	.st46{fill-rule:evenodd;clip-rule:evenodd;fill:#FCE8CB;}
	.st47{fill:#F5978A;}
	.st48{fill:#D4DB56;}
	.st49{fill-rule:evenodd;clip-rule:evenodd;fill:#D4DA55;}
	.st50{fill-rule:evenodd;clip-rule:evenodd;fill:#EB6E7A;}
	.st51{fill:#68A6B9;}
	.st52{fill-rule:evenodd;clip-rule:evenodd;fill:#D5DC57;}
	.st53{fill:#8AC1D8;}
	.st54{fill:#F5E1C5;}
	.st55{fill:#D4D752;}
	.st56{fill:#D3D751;}
	.st57{fill:#D4D853;}
	.st58{fill:#E96C7A;}
	.st59{fill:#D4DA55;}
	.st60{fill:#8BC0D7;}
	.st61{fill:#87796F;stroke:#3A312A;stroke-width:3;stroke-linecap:round;stroke-linejoin:round;stroke-miterlimit:10;}
</style>
<g>
	<g>
		<g>
			<path class="st1" d="M48.045,26.295c-0.974,11.564-13.025,13.389-13.025,13.389c10.347,0.487,12.925,14.059,12.925,14.059
				c0.221-9.677,13.321-14.202,13.321-14.202C51.453,38.955,48.045,26.295,48.045,26.295z"/>
		</g>
	</g>
	<g>
		<g>
			<path class="st0" d="M61.356,38.044C52.751,37.53,49.524,26.02,49.493,25.904c-0.19-0.702-0.848-1.161-1.583-1.102
				c-0.725,0.067-1.298,0.642-1.359,1.367c-0.86,10.215-11.313,11.964-11.754,12.033c-0.763,0.115-1.313,0.79-1.273,1.561
				c0.04,0.77,0.657,1.384,1.428,1.421c9.028,0.425,11.498,12.718,11.523,12.842c0.137,0.711,0.759,1.217,1.472,1.217
				c0.042,0,0.084-0.001,0.126-0.005c0.764-0.064,1.357-0.693,1.375-1.46c0.194-8.509,12.191-12.777,12.313-12.819
				c0.675-0.235,1.092-0.914,0.994-1.623C62.654,38.628,62.07,38.087,61.356,38.044z M47.79,48.39
				c-1.357-3.13-3.709-6.907-7.587-8.876c2.931-1.405,6.409-3.913,8.202-8.272c1.551,3.071,4.2,6.88,8.334,8.722
				C53.732,41.603,49.817,44.369,47.79,48.39z"/>
		</g>
	</g>
	<g>
		<g>
			<path class="st1" d="M26.346,43.276c-0.689,8.179-9.212,9.471-9.212,9.471c7.318,0.344,9.142,9.944,9.142,9.944
				c0.156-6.845,9.422-10.046,9.422-10.046C28.757,52.23,26.346,43.276,26.346,43.276z"/>
		</g>
	</g>
	<g>
		<g>
			<path class="st0" d="M35.788,51.148c-5.767-0.345-7.973-8.185-7.994-8.265c-0.19-0.702-0.855-1.163-1.582-1.102
				c-0.726,0.065-1.299,0.643-1.36,1.368c-0.579,6.871-7.647,8.067-7.942,8.114c-0.763,0.115-1.313,0.79-1.273,1.56
				c0.04,0.77,0.657,1.384,1.428,1.421c6.035,0.284,7.723,8.644,7.739,8.726c0.135,0.713,0.759,1.22,1.472,1.22
				c0.042,0,0.083-0.001,0.125-0.005c0.765-0.063,1.358-0.694,1.376-1.461c0.13-5.71,8.331-8.634,8.413-8.662
				c0.676-0.234,1.094-0.913,0.996-1.622C37.087,51.732,36.502,51.191,35.788,51.148z M26.203,57.943
				c-0.924-1.885-2.34-3.947-4.447-5.28c1.856-1.041,3.697-2.629,4.87-4.916c1.057,1.874,2.655,3.954,4.941,5.224
				C29.718,54.071,27.579,55.71,26.203,57.943z"/>
		</g>
	</g>
	<g>
		<g>
			<path class="st1" d="M26.346,16.618c-0.689,8.179-9.212,9.471-9.212,9.471c7.318,0.344,9.142,9.944,9.142,9.944
				c0.156-6.845,9.422-10.045,9.422-10.045C28.757,25.572,26.346,16.618,26.346,16.618z"/>
		</g>
	</g>
	<g>
		<g>
			<path class="st0" d="M35.788,24.49c-5.767-0.345-7.973-8.185-7.994-8.265c-0.19-0.702-0.855-1.164-1.582-1.102
				c-0.726,0.066-1.299,0.643-1.36,1.368c-0.579,6.871-7.647,8.067-7.942,8.114c-0.763,0.115-1.313,0.79-1.273,1.561
				c0.04,0.77,0.657,1.384,1.427,1.421c6.036,0.284,7.724,8.644,7.739,8.726c0.135,0.713,0.759,1.22,1.472,1.22
				c0.042,0,0.083-0.002,0.125-0.005c0.765-0.063,1.358-0.694,1.376-1.461c0.13-5.709,8.331-8.634,8.413-8.662
				c0.676-0.234,1.094-0.913,0.996-1.622C37.087,25.075,36.502,24.533,35.788,24.49z M26.203,31.285
				c-0.924-1.885-2.34-3.947-4.447-5.279c1.856-1.042,3.697-2.63,4.871-4.917c1.057,1.874,2.655,3.954,4.941,5.224
				C29.718,27.414,27.579,29.053,26.203,31.285z"/>
		</g>
	</g>
	<g>
		<g>
			<path class="st23" d="M129.7,22.141c-0.98-0.83-2.42-0.83-3.4,0l-98.8,83.8v133.55h201v-133.55L129.7,22.141z"/>
		</g>
	</g>
	<g>
		<g>
			<path class="st0" d="M229.47,104.797l-98.8-83.8c-1.547-1.311-3.792-1.309-5.34,0l-98.8,83.8c-0.336,0.285-0.53,0.704-0.53,1.144
				v133.55c0,0.829,0.671,1.5,1.5,1.5h201c0.829,0,1.5-0.671,1.5-1.5v-133.55C230,105.5,229.806,105.082,229.47,104.797z
				 M227,237.991H29V106.636l98.269-83.35c0.423-0.358,1.038-0.358,1.461,0L227,106.636V237.991z"/>
		</g>
	</g>
	<g>
		<g>
			<path class="st4" d="M243.059,111.113L134.225,18.8c-3.607-3.054-8.842-3.056-12.453,0.004l-38.34,32.52l-10.003,8.485
				l-60.487,51.305c-2.948,2.501-3.31,6.919-0.809,9.866c2.501,2.949,6.919,3.31,9.867,0.81L128,31.878l106.001,89.911
				c1.316,1.116,2.925,1.662,4.525,1.662c1.984,0,3.957-0.84,5.341-2.472C246.369,118.032,246.006,113.614,243.059,111.113z"/>
		</g>
	</g>
	<g>
		<g>
			<path class="st0" d="M247.001,115.756c-0.186-2.263-1.241-4.318-2.973-5.787L135.194,17.655
				c-4.169-3.53-10.221-3.529-14.392,0.004L82.461,50.18c-0.632,0.536-0.709,1.482-0.174,2.114c0.536,0.632,1.483,0.71,2.114,0.174
				l38.34-32.52c3.046-2.581,7.468-2.583,10.513-0.004l108.834,92.313c1.12,0.95,1.803,2.28,1.923,3.745
				c0.12,1.464-0.337,2.887-1.288,4.007c-1.047,1.234-2.577,1.942-4.197,1.942c-1.299,0-2.562-0.464-3.555-1.306L128.97,30.734
				c-0.56-0.475-1.381-0.475-1.94,0L21.029,120.644c-2.312,1.962-5.79,1.677-7.753-0.636c-0.95-1.12-1.407-2.543-1.287-4.007
				c0.12-1.464,0.803-2.794,1.923-3.745l60.487-51.305c0.632-0.536,0.71-1.482,0.174-2.114c-0.536-0.632-1.483-0.71-2.114-0.174
				l-60.487,51.305c-1.732,1.469-2.787,3.524-2.973,5.787c-0.185,2.263,0.521,4.463,1.99,6.193
				c3.032,3.574,8.406,4.016,11.981,0.983L128,33.845l105.031,89.088c1.535,1.301,3.486,2.018,5.496,2.018
				c2.503,0,4.867-1.094,6.485-3.001C246.48,120.219,247.187,118.019,247.001,115.756z"/>
		</g>
	</g>
	<g>
		<g>
			<path class="st26" d="M128,33.844l-8,6.79l87.121,73.89c2.461,2.087,3.879,5.151,3.879,8.377v115.093h16v-120.18L128,33.844z"/>
		</g>
	</g>
	<g>
		<g>
			<rect x="92" y="123.001" class="st2" width="72" height="116.49"/>
		</g>
	</g>
	<g>
		<g>
			<path class="st0" d="M164,121.501H92c-0.829,0-1.5,0.671-1.5,1.5v35.885c0,0.829,0.671,1.5,1.5,1.5s1.5-0.671,1.5-1.5v-34.385h69
				v113.49h-69v-64.877c0-0.829-0.671-1.5-1.5-1.5s-1.5,0.671-1.5,1.5v66.377c0,0.829,0.671,1.5,1.5,1.5h72
				c0.829,0,1.5-0.671,1.5-1.5v-116.49C165.5,122.172,164.829,121.501,164,121.501z"/>
		</g>
	</g>
	<g>
		<g>
			<circle class="st39" cx="149.5" cy="180.501" r="6.595"/>
		</g>
	</g>
	<g>
		<g>
			<path class="st0" d="M149.5,172.406c-4.464,0-8.095,3.631-8.095,8.095c0,4.464,3.631,8.095,8.095,8.095
				c4.464,0,8.095-3.631,8.095-8.095C157.595,176.037,153.964,172.406,149.5,172.406z M149.5,185.596
				c-2.81,0-5.095-2.286-5.095-5.095c0-2.81,2.286-5.095,5.095-5.095c2.81,0,5.095,2.286,5.095,5.095
				C154.595,183.31,152.31,185.596,149.5,185.596z"/>
		</g>
	</g>
</g>
</svg>
